HIERARCHY
ROOT Hips
{
	OFFSET 0.000000 0.000000 0.000000
	CHANNELS 6 Xposition Yposition Zposition Zrotation Yrotation Xrotation 
	JOINT LHipJoint
	{
		OFFSET 0.000000 0.000000 0.000000
		CHANNELS 3 Zrotation Yrotation Xrotation
		JOINT LeftUpLeg
		{
			OFFSET 1.363060 -1.794630 0.839290
			CHANNELS 3 Zrotation Yrotation Xrotation
			JOINT LeftLeg
			{
				OFFSET 2.448110 -6.726130 0.000000
				CHANNELS 3 Zrotation Yrotation Xrotation
				JOINT LeftFoot
				{
					OFFSET 2.562200 -7.039590 0.000000
					CHANNELS 3 Zrotation Yrotation Xrotation
					JOINT LeftToeBase
					{
						OFFSET 0.157640 -0.433110 2.322550
						CHANNELS 3 Zrotation Yrotation Xrotation
						End Site
						{
							OFFSET 0.000000 0.000000 0.000000
						}
					}
				}
			}
		}
	}
	JOINT RHipJoint
	{
		OFFSET 0.000000 0.000000 0.000000
		CHANNELS 3 Zrotation Yrotation Xrotation
		JOINT RightUpLeg
		{
			OFFSET -1.305520 -1.794630 0.839290
			CHANNELS 3 Zrotation Yrotation Xrotation
			JOINT RightLeg
			{
				OFFSET -2.542530 -6.985550 0.000000
				CHANNELS 3 Zrotation Yrotation Xrotation
				JOINT RightFoot
				{
					OFFSET -2.568260 -7.056230 0.000000
					CHANNELS 3 Zrotation Yrotation Xrotation
					JOINT RightToeBase
					{
						OFFSET -0.164730 -0.452590 2.363150
						CHANNELS 3 Zrotation Yrotation Xrotation
						End Site
						{
							OFFSET 0.000000 0.000000 0.000000
						}
					}
				}
			}
		}
	}
	JOINT LowerBack
	{
		OFFSET 0.000000 0.000000 0.000000
		CHANNELS 3 Zrotation Yrotation Xrotation
		JOINT Spine
		{
			OFFSET 0.028270 2.035590 -0.193380
			CHANNELS 3 Zrotation Yrotation Xrotation
			JOINT Spine1
			{
				OFFSET 0.056720 2.048850 -0.042750
				CHANNELS 3 Zrotation Yrotation Xrotation
				JOINT Neck
				{
					OFFSET 0.000000 0.000000 0.000000
					CHANNELS 3 Zrotation Yrotation Xrotation
					JOINT Neck1
					{
						OFFSET -0.054170 1.746240 0.172020
						CHANNELS 3 Zrotation Yrotation Xrotation
						JOINT Head
						{
							OFFSET 0.104070 1.761360 -0.123970
							CHANNELS 3 Zrotation Yrotation Xrotation
							End Site
							{
								OFFSET 0.000000 0.000000 0.000000
							}
						}
					}
				}
				JOINT LeftShoulder
				{
					OFFSET 0.000000 0.000000 0.000000
					CHANNELS 3 Zrotation Yrotation Xrotation
					JOINT LeftArm
					{
						OFFSET 3.362410 1.200890 -0.311210
						CHANNELS 3 Zrotation Yrotation Xrotation
						JOINT LeftForeArm
						{
							OFFSET 4.983000 -0.000000 -0.000000
							CHANNELS 3 Zrotation Yrotation Xrotation
							JOINT LeftHand
							{
								OFFSET 3.483560 -0.000000 -0.000000
								CHANNELS 3 Zrotation Yrotation Xrotation
								JOINT LeftFingerBase
								{
									OFFSET 0.000000 0.000000 0.000000
									CHANNELS 3 Zrotation Yrotation Xrotation
									JOINT LeftHandIndex1
									{
										OFFSET 0.715260 -0.000000 -0.000000
										CHANNELS 3 Zrotation Yrotation Xrotation
										End Site
										{
											OFFSET 0.000000 0.000000 0.000000
										}
									}
								}
								JOINT LThumb
								{
									OFFSET 0.000000 0.000000 0.000000
									CHANNELS 3 Zrotation Yrotation Xrotation
									End Site
									{
										OFFSET 0.000000 0.000000 0.000000
									}
								}
							}
						}
					}
				}
				JOINT RightShoulder
				{
					OFFSET 0.000000 0.000000 0.000000
					CHANNELS 3 Zrotation Yrotation Xrotation
					JOINT RightArm
					{
						OFFSET -3.136600 1.374050 -0.404650
						CHANNELS 3 Zrotation Yrotation Xrotation
						JOINT RightForeArm
						{
							OFFSET -5.241900 -0.000000 -0.000000
							CHANNELS 3 Zrotation Yrotation Xrotation
							JOINT RightHand
							{
								OFFSET -3.444170 -0.000000 -0.000000
								CHANNELS 3 Zrotation Yrotation Xrotation
								JOINT RightFingerBase
								{
									OFFSET 0.000000 0.000000 0.000000
									CHANNELS 3 Zrotation Yrotation Xrotation
									JOINT RightHandIndex1
									{
										OFFSET -0.622530 -0.000000 -0.000000
										CHANNELS 3 Zrotation Yrotation Xrotation
										End Site
										{
											OFFSET 0.000000 0.000000 0.000000
										}
									}
								}
								JOINT RThumb
								{
									OFFSET 0.000000 0.000000 0.000000
									CHANNELS 3 Zrotation Yrotation Xrotation
									End Site
									{
										OFFSET 0.000000 0.000000 0.000000
									}
								}
							}
						}
					}
				}
			}
		}
	}
}
MOTION
Frames: 11
Frame Time: 0.008333
10.841832 18.197464 9.485618 148.969489 -85.460532 -143.557861 -4.604172 2.844194 4.575177 -11.823247 -11.355173 -2.989324 -0.099176 1.870684 7.527680 -0.842627 9.570590 -10.751538 0.698900 5.343700 14.891400 -1.634928 -4.425802 2.490848 16.468339 7.902556 -1.834688 -1.158452 -1.679601 7.994206 0.779140 -5.552558 -3.189950 -0.714000 5.400100 -15.053300 -1.324917 -2.451200 -12.144755 -4.198902 -3.934899 8.611326 -0.275333 -2.379371 3.769115 -20.689253 -18.999015 6.161822 27.995773 -29.116138 8.337548 6.572500 -14.314700 7.123800 0.660927 -3.250198 0.323930 -64.737794 -19.764310 58.768189 136.182417 -50.039376 -100.776001 0.887279 -0.352279 22.573111 -0.325633 21.614984 -0.471500 -7.125000 0.000000 0.000000 -29.117200 49.184600 -3.256000 3.688656 3.922266 -0.524709 78.594070 0.090092 64.466590 -110.884983 58.891602 -81.787056 1.131932 0.536230 -3.482900 -36.145916 29.175895 -19.774400 7.125000 0.000000 0.000000 -3.928500 3.875300 -4.194600 
10.840102 18.197176 9.492345 148.192888 -85.497798 -142.820643 -4.604705 2.856523 4.580792 -11.885014 -11.416564 -2.883307 -0.103771 1.844148 7.444322 -0.850032 9.610250 -10.695334 0.688400 5.304500 14.779200 -1.630620 -4.414765 2.486393 16.408015 7.841227 -1.851811 -1.163044 -1.712158 8.088610 0.768384 -5.509558 -3.389069 -0.734900 5.476800 -15.273600 -1.105976 -2.325502 -12.110826 -4.619371 -3.798913 8.615260 -0.363378 -2.310923 3.756929 -20.301183 -19.075498 6.262053 28.076960 -29.220364 8.281273 6.552000 -14.370500 7.074700 0.711044 -3.235025 0.325791 -64.449774 -19.996661 59.168339 136.003841 -50.136958 -100.679667 0.865264 -0.392100 23.892018 0.599331 21.379834 -0.128000 -7.125000 0.000000 0.000000 -28.176000 49.141000 -3.101800 3.713419 3.929375 -0.528017 78.907430 -0.018967 64.101010 -110.669220 58.929380 -81.604101 1.142299 0.523310 -2.881364 -36.399021 29.437137 -20.094500 7.125000 0.000000 0.000000 -4.017700 4.241100 -4.314100 
10.841640 18.197080 9.498783 147.023763 -85.538748 -141.648656 -4.575263 2.849544 4.565982 -12.002878 -11.469172 -2.807680 -0.109770 1.788677 7.314975 -0.879358 9.755540 -10.527556 0.643100 5.130300 14.280600 -1.597494 -4.423327 2.500979 16.297480 7.823355 -1.955794 -1.172041 -1.775340 8.238644 0.763180 -5.508137 -3.462031 -0.721100 5.426300 -15.128700 -1.345163 -2.537400 -12.040310 -4.240926 -4.059489 8.543912 -0.244356 -2.444676 3.699290 -20.627201 -18.927242 6.085733 27.915275 -29.042481 8.493295 6.552900 -14.261500 7.138300 0.667965 -3.247986 0.332857 -64.572817 -19.753513 58.786984 135.934206 -50.186014 -100.612987 0.850983 -0.443168 25.581102 1.564740 21.393029 0.221400 -7.125000 0.000000 0.000000 -27.343600 49.321100 -3.125200 3.696626 3.914876 -0.519134 78.533574 0.012714 64.565843 -110.447989 58.959352 -81.432011 1.150032 0.514438 -2.573331 -36.865702 29.451019 -20.413000 7.125000 0.000000 0.000000 -4.283300 4.405400 -4.612200 
10.840294 18.196311 9.498495 146.656340 -85.340847 -141.274870 -4.561909 2.840721 4.560222 -12.204149 -11.303780 -2.766068 -0.115516 1.733795 7.183609 -0.903075 9.882864 -10.406230 0.598700 4.953200 13.775200 -1.581371 -4.420466 2.507080 16.118469 8.008613 -2.004189 -1.182880 -1.836091 8.382696 0.754121 -5.468502 -3.468512 -0.633200 5.091300 -14.169200 -1.593481 -2.600559 -12.034580 -4.077569 -4.125269 8.520742 -0.104887 -2.482302 3.683430 -20.759943 -18.918913 5.902173 27.720835 -29.011887 8.615102 6.503500 -14.227700 7.182500 0.643247 -3.255094 0.333977 -64.710506 -19.673795 58.525661 135.841463 -50.259627 -100.514215 0.845215 -0.499230 27.452566 2.544794 21.906514 0.585800 -7.125000 0.000000 0.000000 -26.772200 49.947600 -3.487000 3.685946 3.909151 -0.514450 78.316944 0.029849 64.864276 -110.239260 58.983750 -81.277949 1.154028 0.511825 -2.290506 -36.985721 29.289027 -20.394200 7.125000 0.000000 0.000000 -4.390400 4.260600 -4.717900 
10.836162 18.197176 9.497246 146.843921 -85.239058 -141.414438 -4.571681 2.843655 4.561109 -12.242955 -11.210949 -2.715549 -0.127338 1.672284 6.995928 -0.901589 9.882343 -10.399021 0.641600 5.124500 14.264000 -1.597660 -4.412463 2.496392 16.098545 8.147798 -2.124008 -1.201070 -1.903709 8.581873 0.741151 -5.368803 -3.391733 -0.613500 5.012900 -13.945400 -1.475229 -2.523541 -12.099041 -4.459496 -4.054162 8.400786 -0.153965 -2.446576 3.725372 -20.503492 -18.934727 6.030219 27.817067 -29.084542 8.670500 6.504600 -14.262300 7.168600 0.687718 -3.243030 0.344166 -64.465110 -19.662036 58.687725 135.706162 -50.322102 -100.437268 0.831524 -0.507378 29.209540 2.232950 21.744013 0.467900 -7.125000 0.000000 0.000000 -26.949600 49.739900 -3.367700 3.719030 3.924276 -0.506641 78.505999 0.019525 64.823530 -110.044191 59.011734 -81.137890 1.157847 0.512579 -2.135747 -36.832745 29.277452 -20.285300 7.125000 0.000000 0.000000 -4.308300 4.194500 -4.624600 
10.832895 18.198714 9.499552 146.538289 -85.272910 -141.050443 -4.567670 2.843328 4.551339 -12.237630 -11.246059 -2.672396 -0.137271 1.619472 6.841821 -0.900213 9.879907 -10.403982 0.674300 5.251000 14.625900 -1.597307 -4.411937 2.490884 16.105158 8.162048 -2.253353 -1.212846 -1.953917 8.724788 0.733394 -5.319918 -3.392314 -0.676400 5.258700 -14.648000 -1.446920 -2.539818 -12.174846 -4.602561 -4.095904 8.243418 -0.173600 -2.469170 3.785820 -20.520618 -18.832616 6.252555 28.056587 -29.051896 8.756791 6.593200 -14.253000 7.181400 0.715176 -3.237973 0.358069 -64.206359 -19.482129 58.781158 135.693383 -50.312661 -100.452751 0.813173 -0.511204 30.836501 1.921182 21.350360 0.350500 -7.125000 0.000000 0.000000 -26.997300 49.329100 -3.085500 3.741704 3.937619 -0.497085 78.488941 0.033473 64.839619 -110.027320 59.007623 -81.138516 1.155524 0.517342 -1.995442 -36.646058 29.015495 -20.000900 7.125000 0.000000 0.000000 -4.260400 3.837700 -4.548300 
10.829916 18.198810 9.502243 145.390143 -85.260688 -139.936901 -4.552172 2.844888 4.547423 -12.360757 -11.282438 -2.611153 -0.135970 1.610375 6.832849 -0.898332 9.868412 -10.415439 0.685700 5.294200 14.749600 -1.572454 -4.406289 2.492841 15.975351 8.115964 -2.231553 -1.210193 -1.964120 8.730340 0.744588 -5.419463 -3.431848 -0.707800 5.377000 -14.987000 -1.558207 -2.486833 -12.194949 -4.632211 -4.020542 8.265776 -0.100441 -2.437995 3.820676 -20.571769 -18.867148 6.411882 28.229412 -29.109660 8.618167 6.647300 -14.301500 7.166600 0.724521 -3.239124 0.354238 -64.141241 -19.571592 59.033182 135.617655 -50.362129 -100.407770 0.798735 -0.545845 32.232956 2.562119 21.496535 0.586300 -7.125000 0.000000 0.000000 -26.513100 49.570200 -3.188800 3.740790 3.942817 -0.503495 78.451056 -0.018585 64.592560 -110.087983 58.984256 -81.194009 1.144987 0.529224 -1.545358 -36.479623 28.274142 -19.430400 7.125000 0.000000 0.000000 -4.325200 2.939500 -4.554000 
10.827610 18.198906 9.505126 144.823286 -85.253566 -139.349746 -4.551560 2.848639 4.542200 -12.414556 -11.319111 -2.618656 -0.133609 1.611422 6.839218 -0.891129 9.804800 -10.375985 0.691900 5.317600 14.816800 -1.567594 -4.398926 2.488178 15.901700 8.101720 -2.263082 -1.208616 -1.968457 8.735799 0.756336 -5.519801 -3.509408 -0.709900 5.384900 -15.009700 -1.493507 -2.375891 -12.193583 -4.830490 -3.888162 8.234950 -0.104339 -2.370363 3.805716 -20.312153 -18.946136 6.394628 28.131927 -29.183435 8.589787 6.584700 -14.334200 7.131400 0.741358 -3.235277 0.353508 -64.050213 -19.755905 59.463383 135.398845 -50.495496 -100.259556 0.784882 -0.586076 33.114353 3.595154 21.839748 0.978400 -7.125000 0.000000 0.000000 -25.787100 50.063100 -3.419200 3.750923 3.944915 -0.505800 78.622716 -0.138068 64.216108 -109.993870 58.994237 -81.111931 1.142346 0.532521 -0.875070 -36.790066 27.874106 -19.369200 7.125000 0.000000 0.000000 -4.591300 2.566700 -4.807500 
10.826264 18.198137 9.507047 145.558962 -85.251936 -140.002566 -4.568465 2.849958 4.535313 -12.353641 -11.303497 -2.676410 -0.138197 1.595379 6.774414 -0.910427 9.901005 -10.234072 0.621200 5.043800 14.033600 -1.591543 -4.395068 2.477455 15.964844 8.171390 -2.352247 -1.212510 -1.981603 8.793006 0.753439 -5.534053 -3.769439 -0.727300 5.449100 -15.194100 -1.318289 -2.205923 -12.234693 -5.099308 -3.687563 8.146395 -0.167209 -2.263619 3.807870 -19.910715 -19.007459 6.484843 28.144611 -29.249556 8.512098 6.548000 -14.372000 7.062600 0.766491 -3.227731 0.354140 -63.910070 -19.965371 59.962368 135.175836 -50.620877 -100.115796 0.780647 -0.600977 33.729926 3.867835 22.115104 1.091600 -7.125000 0.000000 0.000000 -25.695200 50.358000 -3.601100 3.771244 3.953547 -0.507430 78.955304 -0.324628 63.675281 -109.903658 59.006139 -81.030663 1.148413 0.521000 0.008250 -36.890549 27.854912 -19.415400 7.125000 0.000000 0.000000 -4.654000 2.567500 -4.873700 
10.824054 18.196311 9.512044 145.001838 -85.367378 -139.464424 -4.566687 2.858869 4.536464 -12.345389 -11.419817 -2.611070 -0.141972 1.584696 6.736911 -0.927214 10.018940 -10.222485 0.577200 4.865200 13.524600 -1.586813 -4.391535 2.475297 15.986610 8.052200 -2.343062 -1.211695 -1.981743 8.799852 0.742885 -5.472722 -3.869295 -0.648000 5.149400 -14.335000 -1.176073 -2.163531 -12.261506 -5.282773 -3.650898 8.138465 -0.236674 -2.245091 3.841604 -19.753850 -19.030026 6.680985 28.290855 -29.294665 8.385687 6.582600 -14.414800 7.012200 0.789153 -3.225441 0.351789 -63.829439 -20.037227 60.229564 134.984614 -50.719711 -99.985425 0.783863 -0.603967 34.704066 3.506432 22.403804 0.963700 -7.125000 0.000000 0.000000 -26.179000 50.543500 -3.802900 3.787436 3.959674 -0.511738 79.249721 -0.427926 63.379769 -109.661310 59.037902 -80.848257 1.158146 0.508571 1.047094 -36.836349 27.754236 -19.313500 7.125000 0.000000 0.000000 -4.646900 2.427000 -4.855200 
10.820691 18.196407 9.517234 142.733792 -85.417934 -137.229495 -4.535204 2.863579 4.528228 -12.515923 -11.558444 -2.513950 -0.140463 1.574465 6.738705 -0.911356 9.951784 -10.377782 0.636300 5.103500 14.203900 -1.538038 -4.384209 2.481279 15.795867 7.899872 -2.333555 -1.208072 -1.987010 8.779246 0.732843 -5.401137 -3.750581 -0.620600 5.041500 -14.026900 -1.295213 -2.381402 -12.252839 -5.202330 -3.945742 8.051262 -0.188155 -2.398867 3.842068 -20.076331 -18.906282 6.523750 28.156416 -29.216178 8.771671 6.577900 -14.340100 7.133500 0.780317 -3.229184 0.364491 -63.867444 -19.662206 60.009078 134.752471 -50.844468 -99.795572 0.779646 -0.629707 35.779767 3.863888 22.813274 1.115200 -7.125000 0.000000 0.000000 -26.095500 50.972400 -4.077700 3.802462 3.957364 -0.496411 79.278369 -0.343073 63.723468 -109.058752 59.123892 -80.387074 1.174442 0.497484 1.988386 -37.483540 27.725877 -19.701900 7.125000 0.000000 0.000000 -5.036100 2.580900 -5.277800 
